<svg width="195" height="112" viewBox="0 0 195 112" fill="none" xmlns="http://www.w3.org/2000/svg">
<ellipse cx="18.5256" cy="19.4278" rx="18.5256" ry="19.4278" transform="matrix(0.00303894 -0.999995 0.999996 0.00276324 39.2308 37.7418)" fill="#7E8987"/>
<ellipse cx="18.5256" cy="19.4278" rx="18.5256" ry="19.4278" transform="matrix(0.00303894 -0.999995 0.999996 0.00276324 39.2308 74.815)" fill="#7E8987"/>
<ellipse cx="18.5256" cy="19.4278" rx="18.5256" ry="19.4278" transform="matrix(0.00303894 -0.999995 0.999996 0.00276324 78.4616 74.815)" fill="#7E8987"/>
<ellipse cx="18.5256" cy="19.4278" rx="18.5256" ry="19.4278" transform="matrix(0.00303894 -0.999995 0.999996 0.00276324 78.1961 111.59)" fill="#7E8987"/>
<ellipse cx="18.5256" cy="19.4278" rx="18.5256" ry="19.4278" transform="matrix(0.00303894 -0.999995 0.999996 0.00276324 116.567 111.844)" fill="#7E8987"/>
<ellipse cx="18.5256" cy="19.4278" rx="18.5256" ry="19.4278" transform="matrix(0.00303894 -0.999995 0.999996 0.00276324 117.692 74.8372)" fill="#7E8987"/>
<ellipse cx="18.5256" cy="19.4278" rx="18.5256" ry="19.4278" transform="matrix(0.00303894 -0.999995 0.999996 0.00276324 155.422 111.844)" fill="#7E8987"/>
<ellipse cx="18.5256" cy="19.4278" rx="18.5256" ry="19.4278" transform="matrix(0.00311682 -0.999995 0.999996 0.0026942 0 74.815)" fill="#7E8987"/>
<ellipse cx="18.5256" cy="19.4278" rx="18.5256" ry="19.4278" transform="matrix(0.00311682 -0.999995 0.999996 0.0026942 0 37.764)" fill="#7E8987"/>
</svg>
