<svg width="189" height="113" viewBox="0 0 189 113" fill="none" xmlns="http://www.w3.org/2000/svg">
<ellipse cx="18.6663" cy="18.8509" rx="18.6663" ry="18.8509" transform="matrix(-0.00292656 0.999996 -0.999996 -0.00286953 188.618 75.5884)" fill="#7E8987"/>
<ellipse cx="18.6663" cy="18.8509" rx="18.6663" ry="18.8509" transform="matrix(-0.00292656 0.999996 -0.999996 -0.00286953 150.917 75.5884)" fill="#7E8987"/>
<ellipse cx="18.6663" cy="18.8509" rx="18.6663" ry="18.8509" transform="matrix(-0.00292656 0.999996 -0.999996 -0.00286953 150.917 38.2558)" fill="#7E8987"/>
<ellipse cx="18.6663" cy="18.8509" rx="18.6663" ry="18.8509" transform="matrix(-0.00292656 0.999996 -0.999996 -0.00286953 113.215 38.2558)" fill="#7E8987"/>
<ellipse cx="18.6663" cy="18.8509" rx="18.6663" ry="18.8509" transform="matrix(-0.00292656 0.999996 -0.999996 -0.00286953 113.215 0.923126)" fill="#7E8987"/>
<ellipse cx="18.6663" cy="18.8509" rx="18.6663" ry="18.8509" transform="matrix(-0.00292656 0.999996 -0.999996 -0.00286953 75.5129 0.923126)" fill="#7E8987"/>
<path d="M56.5528 75.859C46.1418 75.8292 37.7264 67.4478 37.7566 57.1387C37.7867 46.8296 46.251 38.4967 56.662 38.5266C67.0731 38.5564 75.4884 46.9378 75.4583 57.2469C75.4281 67.556 66.9638 75.8889 56.5528 75.859Z" fill="#7E8987"/>
<ellipse cx="18.6663" cy="18.8509" rx="18.6663" ry="18.8509" transform="matrix(-0.00292656 0.999996 -0.999996 -0.00286953 37.8109 0.923126)" fill="#7E8987"/>
<ellipse cx="18.6663" cy="18.8509" rx="18.6663" ry="18.8509" transform="matrix(-0.00292656 0.999996 -0.999996 -0.00286953 188.618 38.2558)" fill="#7E8987"/>
</svg>
