<svg width="59" height="44" viewBox="0 0 59 44" fill="none" xmlns="http://www.w3.org/2000/svg">
<path d="M56.9819 7.48C56.44 4.48906 53.8581 2.31094 50.8619 1.63094C46.3781 0.68 38.08 0 29.1019 0C20.1291 0 11.6981 0.68 7.20906 1.63094C4.21813 2.31094 1.63094 4.35094 1.08906 7.48C0.541876 10.88 0 15.64 0 21.76C0 27.88 0.541876 32.64 1.22188 36.04C1.76906 39.0309 4.35094 41.2091 7.34188 41.8891C12.1019 42.84 20.2619 43.52 29.24 43.52C38.2181 43.52 46.3781 42.84 51.1381 41.8891C54.1291 41.2091 56.7109 39.1691 57.2581 36.04C57.8 32.64 58.48 27.7419 58.6181 21.76C58.3419 15.64 57.6619 10.88 56.9819 7.48ZM21.76 31.28V12.24L38.3509 21.76L21.76 31.28Z" fill="white"/>
</svg>
